<mxfile host="65bd71144e">
    <diagram id="mZoyGbEsP2BuPK2UhwtV" name="Page-1">
        <mxGraphModel dx="1235" dy="665" grid="1" gridSize="10" guides="1" tooltips="1" connect="1" arrows="1" fold="1" page="1" pageScale="1" pageWidth="827" pageHeight="1169" math="0" shadow="0">
            <root>
                <mxCell id="0"/>
                <mxCell id="1" parent="0"/>
                <mxCell id="2" value="&lt;h1&gt;Next.js&lt;/h1&gt;&lt;p&gt;&lt;/p&gt;&lt;ul&gt;&lt;li&gt;Has a lot of developers.&lt;/li&gt;&lt;li&gt;No need for back-end as it has a builtin api. The connection to database is also save which is the most important thing.&lt;/li&gt;&lt;li&gt;Harder to learn than vue, but less hard than angular.&lt;/li&gt;&lt;li&gt;Can use typescript.&lt;/li&gt;&lt;li&gt;Is very good for more static sites which we are making basicaly.&lt;/li&gt;&lt;li&gt;Easier than normal react (forces a file structure). Auto reload on changes.&lt;/li&gt;&lt;/ul&gt;&lt;p&gt;&lt;/p&gt;" style="text;html=1;strokeColor=none;fillColor=none;spacing=5;spacingTop=-20;whiteSpace=wrap;overflow=hidden;rounded=0;" vertex="1" parent="1">
                    <mxGeometry x="210" y="280" width="350" height="320" as="geometry"/>
                </mxCell>
                <mxCell id="3" value="&lt;h1&gt;&lt;span&gt;Django&lt;/span&gt;&lt;/h1&gt;&lt;h1&gt;&lt;ul&gt;&lt;li&gt;&lt;span style=&quot;font-size: 12px ; font-weight: 400&quot;&gt;Freaky mix of python and javascript/ react&lt;/span&gt;&lt;/li&gt;&lt;li&gt;&lt;span style=&quot;font-size: 12px ; font-weight: 400&quot;&gt;Wierd seperation of pages and api.&lt;/span&gt;&lt;/li&gt;&lt;li&gt;&lt;span style=&quot;font-size: 12px ; font-weight: 400&quot;&gt;Very structure in general.&lt;/span&gt;&lt;/li&gt;&lt;li&gt;&lt;span style=&quot;font-size: 12px ; font-weight: 400&quot;&gt;ORM that is a pain in the ass.&lt;/span&gt;&lt;/li&gt;&lt;li&gt;&lt;span style=&quot;font-size: 12px ; font-weight: 400&quot;&gt;error message unclarity&lt;/span&gt;&lt;/li&gt;&lt;/ul&gt;&lt;/h1&gt;" style="text;html=1;strokeColor=none;fillColor=none;spacing=5;spacingTop=-20;whiteSpace=wrap;overflow=hidden;rounded=0;" vertex="1" parent="1">
                    <mxGeometry x="-110" y="10" width="310" height="230" as="geometry"/>
                </mxCell>
                <mxCell id="4" value="&lt;h1&gt;Nuxt&lt;/h1&gt;&lt;p&gt;&lt;ul&gt;&lt;li&gt;Smaller community than next js.&lt;/li&gt;&lt;li&gt;A lot of the same features like next&lt;/li&gt;&lt;/ul&gt;&lt;/p&gt;" style="text;html=1;strokeColor=none;fillColor=none;spacing=5;spacingTop=-20;whiteSpace=wrap;overflow=hidden;rounded=0;" vertex="1" parent="1">
                    <mxGeometry x="-160" y="280" width="190" height="120" as="geometry"/>
                </mxCell>
            </root>
        </mxGraphModel>
    </diagram>
</mxfile>